<mxfile host="app.diagrams.net" agent="Mozilla/5.0 (Windows NT 10.0; Win64; x64; rv:132.0) Gecko/20100101 Firefox/132.0" version="24.8.6">
  <diagram name="Page-1" id="8U-0Ji8iIOVNU5wxWSw1">
    <mxGraphModel dx="1728" dy="622" grid="1" gridSize="10" guides="1" tooltips="1" connect="1" arrows="1" fold="1" page="1" pageScale="1" pageWidth="850" pageHeight="1100" math="0" shadow="0">
      <root>
        <mxCell id="0" />
        <mxCell id="1" parent="0" />
        <mxCell id="q3nTp1ZwZaZowu6n0daH-28" value="" style="group" vertex="1" connectable="0" parent="1">
          <mxGeometry x="39.5" y="50" width="200" height="390" as="geometry" />
        </mxCell>
        <mxCell id="q3nTp1ZwZaZowu6n0daH-26" value="" style="verticalLabelPosition=bottom;verticalAlign=top;html=1;shadow=0;dashed=0;strokeWidth=1;shape=mxgraph.ios.iBgFlat;strokeColor=#18211b;" vertex="1" parent="q3nTp1ZwZaZowu6n0daH-28">
          <mxGeometry x="7.25" y="35" width="186" height="320" as="geometry" />
        </mxCell>
        <mxCell id="q3nTp1ZwZaZowu6n0daH-19" value="" style="verticalLabelPosition=bottom;verticalAlign=top;html=1;shadow=0;dashed=0;strokeWidth=1;shape=mxgraph.android.phone2;strokeColor=#c0c0c0;" vertex="1" parent="q3nTp1ZwZaZowu6n0daH-28">
          <mxGeometry width="200" height="390" as="geometry" />
        </mxCell>
        <mxCell id="q3nTp1ZwZaZowu6n0daH-36" value="Register" style="rounded=1;html=1;shadow=0;dashed=0;whiteSpace=wrap;fontSize=12;fillColor=#666666;align=center;strokeColor=#4D4D4D;fontColor=#ffffff;" vertex="1" parent="q3nTp1ZwZaZowu6n0daH-28">
          <mxGeometry x="47.5" y="250" width="105.5" height="16.88" as="geometry" />
        </mxCell>
        <mxCell id="q3nTp1ZwZaZowu6n0daH-20" value="" style="strokeWidth=1;html=1;shadow=0;dashed=0;shape=mxgraph.android.textfield;align=center;strokeColor=#999999;pointerEvents=1" vertex="1" parent="1">
          <mxGeometry x="119.75" y="170" width="100.25" height="30" as="geometry" />
        </mxCell>
        <mxCell id="q3nTp1ZwZaZowu6n0daH-21" value="Username" style="text;html=1;align=center;verticalAlign=middle;resizable=0;points=[];autosize=1;strokeColor=none;fillColor=none;" vertex="1" parent="1">
          <mxGeometry x="39.75" y="180" width="80" height="30" as="geometry" />
        </mxCell>
        <mxCell id="q3nTp1ZwZaZowu6n0daH-22" value="" style="strokeWidth=1;html=1;shadow=0;dashed=0;shape=mxgraph.android.textfield;align=center;strokeColor=#999999;pointerEvents=1" vertex="1" parent="1">
          <mxGeometry x="119.75" y="200" width="100.25" height="30" as="geometry" />
        </mxCell>
        <mxCell id="q3nTp1ZwZaZowu6n0daH-23" value="Password" style="text;html=1;align=center;verticalAlign=middle;resizable=0;points=[];autosize=1;strokeColor=none;fillColor=none;" vertex="1" parent="1">
          <mxGeometry x="39.75" y="210" width="80" height="30" as="geometry" />
        </mxCell>
        <mxCell id="q3nTp1ZwZaZowu6n0daH-24" value="Login" style="rounded=1;html=1;shadow=0;dashed=0;whiteSpace=wrap;fontSize=12;fillColor=#666666;align=center;strokeColor=#4D4D4D;fontColor=#ffffff;" vertex="1" parent="1">
          <mxGeometry x="86.75" y="270" width="105.5" height="16.88" as="geometry" />
        </mxCell>
        <mxCell id="q3nTp1ZwZaZowu6n0daH-29" value="" style="group" vertex="1" connectable="0" parent="1">
          <mxGeometry x="40" y="1360" width="230" height="390" as="geometry" />
        </mxCell>
        <mxCell id="q3nTp1ZwZaZowu6n0daH-30" value="" style="verticalLabelPosition=bottom;verticalAlign=top;html=1;shadow=0;dashed=0;strokeWidth=1;shape=mxgraph.ios.iBgFlat;strokeColor=#18211b;fontSize=12;" vertex="1" parent="q3nTp1ZwZaZowu6n0daH-29">
          <mxGeometry x="7.25" y="35" width="186" height="320" as="geometry" />
        </mxCell>
        <mxCell id="q3nTp1ZwZaZowu6n0daH-31" value="" style="verticalLabelPosition=bottom;verticalAlign=top;html=1;shadow=0;dashed=0;strokeWidth=1;shape=mxgraph.android.phone2;strokeColor=#c0c0c0;" vertex="1" parent="q3nTp1ZwZaZowu6n0daH-29">
          <mxGeometry width="200" height="390" as="geometry" />
        </mxCell>
        <mxCell id="q3nTp1ZwZaZowu6n0daH-38" value="&lt;div style=&quot;font-size: 12px;&quot;&gt;Question&lt;/div&gt;&lt;div align=&quot;center&quot; style=&quot;font-size: 12px;&quot;&gt;Type&lt;/div&gt;" style="html=1;shadow=0;dashed=0;shape=mxgraph.bootstrap.rrect;rSize=5;strokeColor=none;strokeWidth=1;fillColor=#6C767D;fontColor=#ffffff;whiteSpace=wrap;align=right;verticalAlign=middle;fontStyle=0;fontSize=12;spacingRight=20;" vertex="1" parent="q3nTp1ZwZaZowu6n0daH-29">
          <mxGeometry x="46.38" y="200" width="107.25" height="30" as="geometry" />
        </mxCell>
        <mxCell id="q3nTp1ZwZaZowu6n0daH-39" value="" style="shape=triangle;direction=south;fillColor=#ffffff;strokeColor=none;perimeter=none;" vertex="1" parent="q3nTp1ZwZaZowu6n0daH-38">
          <mxGeometry x="1" y="0.5" width="10" height="5" relative="1" as="geometry">
            <mxPoint x="-17" y="-2.5" as="offset" />
          </mxGeometry>
        </mxCell>
        <mxCell id="q3nTp1ZwZaZowu6n0daH-40" value="" style="strokeWidth=1;html=1;shadow=0;dashed=0;shape=mxgraph.android.textfield;align=center;strokeColor=#999999;pointerEvents=1" vertex="1" parent="q3nTp1ZwZaZowu6n0daH-29">
          <mxGeometry x="20" y="70" width="160" height="30" as="geometry" />
        </mxCell>
        <mxCell id="q3nTp1ZwZaZowu6n0daH-41" value="Question:" style="text;html=1;align=center;verticalAlign=middle;resizable=0;points=[];autosize=1;strokeColor=none;fillColor=none;" vertex="1" parent="q3nTp1ZwZaZowu6n0daH-29">
          <mxGeometry x="7.250000000000003" y="40" width="80" height="30" as="geometry" />
        </mxCell>
        <mxCell id="q3nTp1ZwZaZowu6n0daH-145" value="Add image" style="rounded=1;html=1;shadow=0;dashed=0;whiteSpace=wrap;fontSize=10;fillColor=#666666;align=center;strokeColor=#4D4D4D;fontColor=#ffffff;" vertex="1" parent="q3nTp1ZwZaZowu6n0daH-29">
          <mxGeometry x="48.370000000000005" y="170" width="105.5" height="16.88" as="geometry" />
        </mxCell>
        <mxCell id="q3nTp1ZwZaZowu6n0daH-149" value="" style="verticalLabelPosition=bottom;shadow=0;dashed=0;align=center;html=1;verticalAlign=top;strokeWidth=1;shape=mxgraph.mockup.graphics.simpleIcon;strokeColor=#999999;" vertex="1" parent="q3nTp1ZwZaZowu6n0daH-29">
          <mxGeometry x="21.12" y="110" width="160" height="50" as="geometry" />
        </mxCell>
        <mxCell id="q3nTp1ZwZaZowu6n0daH-32" value="" style="group" vertex="1" connectable="0" parent="1">
          <mxGeometry x="280" y="50" width="200" height="390" as="geometry" />
        </mxCell>
        <mxCell id="q3nTp1ZwZaZowu6n0daH-33" value="" style="verticalLabelPosition=bottom;verticalAlign=top;html=1;shadow=0;dashed=0;strokeWidth=1;shape=mxgraph.ios.iBgFlat;strokeColor=#18211b;" vertex="1" parent="q3nTp1ZwZaZowu6n0daH-32">
          <mxGeometry x="7.25" y="35" width="186" height="320" as="geometry" />
        </mxCell>
        <mxCell id="q3nTp1ZwZaZowu6n0daH-34" value="" style="verticalLabelPosition=bottom;verticalAlign=top;html=1;shadow=0;dashed=0;strokeWidth=1;shape=mxgraph.android.phone2;strokeColor=#c0c0c0;" vertex="1" parent="q3nTp1ZwZaZowu6n0daH-32">
          <mxGeometry width="200" height="390" as="geometry" />
        </mxCell>
        <mxCell id="q3nTp1ZwZaZowu6n0daH-9" value="" style="strokeWidth=1;html=1;shadow=0;dashed=0;shape=mxgraph.android.textfield;align=center;strokeColor=#999999;pointerEvents=1" vertex="1" parent="q3nTp1ZwZaZowu6n0daH-32">
          <mxGeometry x="85" y="96.56" width="95" height="30" as="geometry" />
        </mxCell>
        <mxCell id="q3nTp1ZwZaZowu6n0daH-10" value="Username" style="text;html=1;align=center;verticalAlign=middle;resizable=0;points=[];autosize=1;strokeColor=none;fillColor=none;" vertex="1" parent="q3nTp1ZwZaZowu6n0daH-32">
          <mxGeometry x="5" y="106.56" width="80" height="30" as="geometry" />
        </mxCell>
        <mxCell id="q3nTp1ZwZaZowu6n0daH-11" value="" style="strokeWidth=1;html=1;shadow=0;dashed=0;shape=mxgraph.android.textfield;align=center;strokeColor=#999999;pointerEvents=1" vertex="1" parent="q3nTp1ZwZaZowu6n0daH-32">
          <mxGeometry x="85" y="126.56" width="95" height="30" as="geometry" />
        </mxCell>
        <mxCell id="q3nTp1ZwZaZowu6n0daH-12" value="Email" style="text;html=1;align=center;verticalAlign=middle;resizable=0;points=[];autosize=1;strokeColor=none;fillColor=none;" vertex="1" parent="q3nTp1ZwZaZowu6n0daH-32">
          <mxGeometry x="15" y="136.56" width="60" height="30" as="geometry" />
        </mxCell>
        <mxCell id="q3nTp1ZwZaZowu6n0daH-13" value="Create" style="rounded=1;html=1;shadow=0;dashed=0;whiteSpace=wrap;fontSize=12;fillColor=#666666;align=center;strokeColor=#4D4D4D;fontColor=#ffffff;" vertex="1" parent="q3nTp1ZwZaZowu6n0daH-32">
          <mxGeometry x="52.25" y="246.56" width="105.5" height="16.88" as="geometry" />
        </mxCell>
        <mxCell id="q3nTp1ZwZaZowu6n0daH-14" value="" style="strokeWidth=1;html=1;shadow=0;dashed=0;shape=mxgraph.android.textfield;align=center;strokeColor=#999999;pointerEvents=1" vertex="1" parent="q3nTp1ZwZaZowu6n0daH-32">
          <mxGeometry x="85" y="156.56" width="95" height="30" as="geometry" />
        </mxCell>
        <mxCell id="q3nTp1ZwZaZowu6n0daH-15" value="Password" style="text;html=1;align=center;verticalAlign=middle;resizable=0;points=[];autosize=1;strokeColor=none;fillColor=none;" vertex="1" parent="q3nTp1ZwZaZowu6n0daH-32">
          <mxGeometry x="5" y="166.56" width="80" height="30" as="geometry" />
        </mxCell>
        <mxCell id="q3nTp1ZwZaZowu6n0daH-16" value="" style="strokeWidth=1;html=1;shadow=0;dashed=0;shape=mxgraph.android.textfield;align=center;strokeColor=#999999;pointerEvents=1" vertex="1" parent="q3nTp1ZwZaZowu6n0daH-32">
          <mxGeometry x="85" y="186.56" width="95" height="30" as="geometry" />
        </mxCell>
        <mxCell id="q3nTp1ZwZaZowu6n0daH-17" value="&lt;div&gt;Comfirmar&amp;nbsp;&lt;/div&gt;&lt;div&gt;password&lt;/div&gt;" style="text;html=1;align=center;verticalAlign=middle;resizable=0;points=[];autosize=1;strokeColor=none;fillColor=none;" vertex="1" parent="q3nTp1ZwZaZowu6n0daH-32">
          <mxGeometry y="191.56" width="90" height="40" as="geometry" />
        </mxCell>
        <mxCell id="q3nTp1ZwZaZowu6n0daH-18" value="Cancel" style="rounded=1;html=1;shadow=0;dashed=0;whiteSpace=wrap;fontSize=12;fillColor=#666666;align=center;strokeColor=#4D4D4D;fontColor=#ffffff;" vertex="1" parent="q3nTp1ZwZaZowu6n0daH-32">
          <mxGeometry x="52.25" y="276.56" width="105.5" height="16.88" as="geometry" />
        </mxCell>
        <mxCell id="q3nTp1ZwZaZowu6n0daH-42" value="" style="group" vertex="1" connectable="0" parent="1">
          <mxGeometry x="280" y="920" width="820" height="390" as="geometry" />
        </mxCell>
        <mxCell id="q3nTp1ZwZaZowu6n0daH-43" value="" style="verticalLabelPosition=bottom;verticalAlign=top;html=1;shadow=0;dashed=0;strokeWidth=1;shape=mxgraph.ios.iBgFlat;strokeColor=#18211b;fontSize=12;" vertex="1" parent="q3nTp1ZwZaZowu6n0daH-42">
          <mxGeometry x="7.25" y="475" width="186" height="320" as="geometry" />
        </mxCell>
        <mxCell id="q3nTp1ZwZaZowu6n0daH-44" value="" style="verticalLabelPosition=bottom;verticalAlign=top;html=1;shadow=0;dashed=0;strokeWidth=1;shape=mxgraph.android.phone2;strokeColor=#c0c0c0;" vertex="1" parent="q3nTp1ZwZaZowu6n0daH-42">
          <mxGeometry y="440" width="200" height="390" as="geometry" />
        </mxCell>
        <mxCell id="q3nTp1ZwZaZowu6n0daH-45" value="&lt;div align=&quot;center&quot; style=&quot;font-size: 12px;&quot;&gt;Yes/No&lt;/div&gt;" style="html=1;shadow=0;dashed=0;shape=mxgraph.bootstrap.rrect;rSize=5;strokeColor=none;strokeWidth=1;fillColor=#6C767D;fontColor=#ffffff;whiteSpace=wrap;align=center;verticalAlign=middle;fontStyle=0;fontSize=12;spacingRight=20;" vertex="1" parent="q3nTp1ZwZaZowu6n0daH-42">
          <mxGeometry x="46.379999999999995" y="560" width="107.25" height="30" as="geometry" />
        </mxCell>
        <mxCell id="q3nTp1ZwZaZowu6n0daH-46" value="" style="shape=triangle;direction=south;fillColor=#ffffff;strokeColor=none;perimeter=none;" vertex="1" parent="q3nTp1ZwZaZowu6n0daH-45">
          <mxGeometry x="1" y="0.5" width="10" height="5" relative="1" as="geometry">
            <mxPoint x="-17" y="-2.5" as="offset" />
          </mxGeometry>
        </mxCell>
        <mxCell id="q3nTp1ZwZaZowu6n0daH-47" value="" style="strokeWidth=1;html=1;shadow=0;dashed=0;shape=mxgraph.android.textfield;align=center;strokeColor=#999999;pointerEvents=1" vertex="1" parent="q3nTp1ZwZaZowu6n0daH-42">
          <mxGeometry x="20" y="510" width="160" height="30" as="geometry" />
        </mxCell>
        <mxCell id="q3nTp1ZwZaZowu6n0daH-48" value="Question:" style="text;html=1;align=center;verticalAlign=middle;resizable=0;points=[];autosize=1;strokeColor=none;fillColor=none;" vertex="1" parent="q3nTp1ZwZaZowu6n0daH-42">
          <mxGeometry x="7.25" y="480" width="80" height="30" as="geometry" />
        </mxCell>
        <mxCell id="q3nTp1ZwZaZowu6n0daH-68" value="Answer 1" style="shape=ellipse;fillColor=#eeeeee;strokeColor=#999999;gradientColor=#cccccc;html=1;align=left;spacingLeft=4;fontSize=12;fontColor=#666666;labelPosition=right;shadow=0;" vertex="1" parent="q3nTp1ZwZaZowu6n0daH-42">
          <mxGeometry x="20" y="610" width="12" height="12" as="geometry" />
        </mxCell>
        <mxCell id="q3nTp1ZwZaZowu6n0daH-69" value="Answer 2" style="shape=ellipse;fillColor=#eeeeee;strokeColor=#999999;gradientColor=#cccccc;html=1;align=left;spacingLeft=4;fontSize=12;fontColor=#666666;labelPosition=right;shadow=0;" vertex="1" parent="q3nTp1ZwZaZowu6n0daH-42">
          <mxGeometry x="20" y="640" width="12" height="12" as="geometry" />
        </mxCell>
        <mxCell id="q3nTp1ZwZaZowu6n0daH-54" value="" style="group" vertex="1" connectable="0" parent="1">
          <mxGeometry x="520" y="1360" width="230" height="390" as="geometry" />
        </mxCell>
        <mxCell id="q3nTp1ZwZaZowu6n0daH-55" value="" style="verticalLabelPosition=bottom;verticalAlign=top;html=1;shadow=0;dashed=0;strokeWidth=1;shape=mxgraph.ios.iBgFlat;strokeColor=#18211b;fontSize=12;" vertex="1" parent="q3nTp1ZwZaZowu6n0daH-54">
          <mxGeometry x="7.25" y="35" width="186" height="320" as="geometry" />
        </mxCell>
        <mxCell id="q3nTp1ZwZaZowu6n0daH-56" value="" style="verticalLabelPosition=bottom;verticalAlign=top;html=1;shadow=0;dashed=0;strokeWidth=1;shape=mxgraph.android.phone2;strokeColor=#c0c0c0;" vertex="1" parent="q3nTp1ZwZaZowu6n0daH-54">
          <mxGeometry width="200" height="390" as="geometry" />
        </mxCell>
        <mxCell id="q3nTp1ZwZaZowu6n0daH-57" value="Multiple Choice" style="html=1;shadow=0;dashed=0;shape=mxgraph.bootstrap.rrect;rSize=5;strokeColor=none;strokeWidth=1;fillColor=#6C767D;fontColor=#ffffff;whiteSpace=wrap;align=center;verticalAlign=middle;fontStyle=0;fontSize=12;spacingRight=20;" vertex="1" parent="q3nTp1ZwZaZowu6n0daH-54">
          <mxGeometry x="46.38" y="120" width="107.25" height="30" as="geometry" />
        </mxCell>
        <mxCell id="q3nTp1ZwZaZowu6n0daH-58" value="" style="shape=triangle;direction=south;fillColor=#ffffff;strokeColor=none;perimeter=none;" vertex="1" parent="q3nTp1ZwZaZowu6n0daH-57">
          <mxGeometry x="1" y="0.5" width="10" height="5" relative="1" as="geometry">
            <mxPoint x="-17" y="-2.5" as="offset" />
          </mxGeometry>
        </mxCell>
        <mxCell id="q3nTp1ZwZaZowu6n0daH-59" value="" style="strokeWidth=1;html=1;shadow=0;dashed=0;shape=mxgraph.android.textfield;align=center;strokeColor=#999999;pointerEvents=1" vertex="1" parent="q3nTp1ZwZaZowu6n0daH-54">
          <mxGeometry x="20" y="70" width="160" height="30" as="geometry" />
        </mxCell>
        <mxCell id="q3nTp1ZwZaZowu6n0daH-60" value="Question:" style="text;html=1;align=center;verticalAlign=middle;resizable=0;points=[];autosize=1;strokeColor=none;fillColor=none;" vertex="1" parent="q3nTp1ZwZaZowu6n0daH-54">
          <mxGeometry x="7.250000000000003" y="40" width="80" height="30" as="geometry" />
        </mxCell>
        <mxCell id="q3nTp1ZwZaZowu6n0daH-61" value="Answer 1" style="rounded=1;fillColor=#F0F2F5;strokeColor=#D8DCE3;align=left;verticalAlign=middle;fontStyle=0;fontSize=12;labelPosition=right;verticalLabelPosition=middle;spacingLeft=10;html=1;shadow=0;dashed=0" vertex="1" parent="q3nTp1ZwZaZowu6n0daH-54">
          <mxGeometry x="20" y="174" width="12" height="12" as="geometry" />
        </mxCell>
        <mxCell id="q3nTp1ZwZaZowu6n0daH-62" value="Answer 2" style="rounded=1;fillColor=#F0F2F5;strokeColor=#D8DCE3;align=left;verticalAlign=middle;fontStyle=0;fontSize=12;labelPosition=right;verticalLabelPosition=middle;spacingLeft=10;html=1;shadow=0;dashed=0" vertex="1" parent="q3nTp1ZwZaZowu6n0daH-54">
          <mxGeometry x="20" y="204" width="12" height="12" as="geometry" />
        </mxCell>
        <mxCell id="q3nTp1ZwZaZowu6n0daH-70" value="&lt;font style=&quot;font-size: 12px;&quot;&gt;Add answer&lt;/font&gt;" style="rounded=1;html=1;shadow=0;dashed=0;whiteSpace=wrap;fontSize=10;fillColor=#666666;align=center;strokeColor=#4D4D4D;fontColor=#ffffff;" vertex="1" parent="q3nTp1ZwZaZowu6n0daH-54">
          <mxGeometry x="48.13" y="240" width="105.5" height="16.88" as="geometry" />
        </mxCell>
        <mxCell id="q3nTp1ZwZaZowu6n0daH-71" value="" style="verticalLabelPosition=bottom;verticalAlign=top;html=1;shadow=0;dashed=0;strokeWidth=1;shape=mxgraph.ios.iBgFlat;strokeColor=#18211b;fontSize=12;" vertex="1" parent="1">
          <mxGeometry x="46.75" y="955" width="186" height="320" as="geometry" />
        </mxCell>
        <mxCell id="q3nTp1ZwZaZowu6n0daH-72" value="" style="verticalLabelPosition=bottom;verticalAlign=top;html=1;shadow=0;dashed=0;strokeWidth=1;shape=mxgraph.android.phone2;strokeColor=#c0c0c0;" vertex="1" parent="1">
          <mxGeometry x="39.5" y="920" width="200" height="390" as="geometry" />
        </mxCell>
        <mxCell id="q3nTp1ZwZaZowu6n0daH-75" value="" style="strokeWidth=1;html=1;shadow=0;dashed=0;shape=mxgraph.android.textfield;align=center;strokeColor=#999999;pointerEvents=1" vertex="1" parent="1">
          <mxGeometry x="59.5" y="990" width="160" height="30" as="geometry" />
        </mxCell>
        <mxCell id="q3nTp1ZwZaZowu6n0daH-76" value="Form Title:" style="text;html=1;align=center;verticalAlign=middle;resizable=0;points=[];autosize=1;strokeColor=none;fillColor=none;" vertex="1" parent="1">
          <mxGeometry x="56.75" y="960" width="80" height="30" as="geometry" />
        </mxCell>
        <mxCell id="q3nTp1ZwZaZowu6n0daH-77" value="&lt;font style=&quot;font-size: 12px;&quot;&gt;Add question&lt;br&gt;&lt;/font&gt;" style="rounded=1;html=1;shadow=0;dashed=0;whiteSpace=wrap;fontSize=10;fillColor=#666666;align=center;strokeColor=#4D4D4D;fontColor=#ffffff;" vertex="1" parent="1">
          <mxGeometry x="87" y="1223.12" width="105.5" height="16.88" as="geometry" />
        </mxCell>
        <mxCell id="q3nTp1ZwZaZowu6n0daH-78" value="" style="verticalLabelPosition=bottom;verticalAlign=top;html=1;shadow=0;dashed=0;strokeWidth=1;shape=mxgraph.ios.iBgFlat;strokeColor=#18211b;fontSize=12;" vertex="1" parent="1">
          <mxGeometry x="286.75" y="955" width="186" height="320" as="geometry" />
        </mxCell>
        <mxCell id="q3nTp1ZwZaZowu6n0daH-79" value="" style="verticalLabelPosition=bottom;verticalAlign=top;html=1;shadow=0;dashed=0;strokeWidth=1;shape=mxgraph.android.phone2;strokeColor=#c0c0c0;" vertex="1" parent="1">
          <mxGeometry x="279.5" y="920" width="200" height="390" as="geometry" />
        </mxCell>
        <mxCell id="q3nTp1ZwZaZowu6n0daH-80" value="" style="strokeWidth=1;html=1;shadow=0;dashed=0;shape=mxgraph.android.textfield;align=center;strokeColor=#999999;pointerEvents=1" vertex="1" parent="1">
          <mxGeometry x="299.5" y="990" width="160" height="30" as="geometry" />
        </mxCell>
        <mxCell id="q3nTp1ZwZaZowu6n0daH-81" value="Form Title:" style="text;html=1;align=center;verticalAlign=middle;resizable=0;points=[];autosize=1;strokeColor=none;fillColor=none;" vertex="1" parent="1">
          <mxGeometry x="296.75" y="960" width="80" height="30" as="geometry" />
        </mxCell>
        <mxCell id="q3nTp1ZwZaZowu6n0daH-82" value="&lt;font style=&quot;font-size: 12px;&quot;&gt;Add question&lt;br&gt;&lt;/font&gt;" style="rounded=1;html=1;shadow=0;dashed=0;whiteSpace=wrap;fontSize=10;fillColor=#666666;align=center;strokeColor=#4D4D4D;fontColor=#ffffff;" vertex="1" parent="1">
          <mxGeometry x="327" y="1223.12" width="105.5" height="16.88" as="geometry" />
        </mxCell>
        <mxCell id="q3nTp1ZwZaZowu6n0daH-93" value="Create" style="rounded=1;html=1;shadow=0;dashed=0;whiteSpace=wrap;fontSize=12;fillColor=#666666;align=center;strokeColor=#4D4D4D;fontColor=#ffffff;" vertex="1" parent="1">
          <mxGeometry x="326.75" y="1250" width="105.5" height="16.88" as="geometry" />
        </mxCell>
        <mxCell id="q3nTp1ZwZaZowu6n0daH-94" value="Create" style="rounded=1;html=1;shadow=0;dashed=0;whiteSpace=wrap;fontSize=12;fillColor=#666666;align=center;strokeColor=#4D4D4D;fontColor=#ffffff;" vertex="1" parent="1">
          <mxGeometry x="87" y="1250" width="105.5" height="16.88" as="geometry" />
        </mxCell>
        <mxCell id="q3nTp1ZwZaZowu6n0daH-95" value="" style="strokeWidth=1;html=1;shadow=0;dashed=0;shape=mxgraph.android.rrect;rSize=0;strokeColor=#888888;fillColor=#ffffff;fontColor=#000000;" vertex="1" parent="1">
          <mxGeometry x="299.5" y="1090" width="160" height="110" as="geometry" />
        </mxCell>
        <mxCell id="q3nTp1ZwZaZowu6n0daH-96" value="Question X" style="strokeColor=inherit;fillColor=inherit;gradientColor=inherit;strokeWidth=1;html=1;shadow=0;dashed=0;shape=mxgraph.android.rrect;rSize=0;align=left;spacingLeft=10;fontSize=12;fontColor=#000000;" vertex="1" parent="q3nTp1ZwZaZowu6n0daH-95">
          <mxGeometry width="160" height="27.500000000000004" as="geometry" />
        </mxCell>
        <mxCell id="q3nTp1ZwZaZowu6n0daH-97" value="Question X" style="strokeColor=inherit;fillColor=inherit;gradientColor=inherit;strokeWidth=1;html=1;shadow=0;dashed=0;shape=mxgraph.android.rrect;rSize=0;align=left;spacingLeft=10;fontSize=12;fontColor=#000000;" vertex="1" parent="q3nTp1ZwZaZowu6n0daH-95">
          <mxGeometry y="27.500000000000004" width="160" height="27.500000000000004" as="geometry" />
        </mxCell>
        <mxCell id="q3nTp1ZwZaZowu6n0daH-98" value="Question X" style="strokeColor=inherit;fillColor=inherit;gradientColor=inherit;strokeWidth=1;html=1;shadow=0;dashed=0;shape=mxgraph.android.rrect;rSize=0;align=left;spacingLeft=10;fontSize=12;fontColor=#000000;" vertex="1" parent="q3nTp1ZwZaZowu6n0daH-95">
          <mxGeometry y="55.00000000000001" width="160" height="27.500000000000004" as="geometry" />
        </mxCell>
        <mxCell id="q3nTp1ZwZaZowu6n0daH-99" value="Question X" style="strokeColor=inherit;fillColor=inherit;gradientColor=inherit;strokeWidth=1;html=1;shadow=0;dashed=0;shape=mxgraph.android.rrect;rSize=0;align=left;spacingLeft=10;fontSize=12;fontColor=#000000;" vertex="1" parent="q3nTp1ZwZaZowu6n0daH-95">
          <mxGeometry y="82.5" width="160" height="27.500000000000004" as="geometry" />
        </mxCell>
        <mxCell id="q3nTp1ZwZaZowu6n0daH-101" value="" style="verticalLabelPosition=bottom;verticalAlign=top;html=1;shadow=0;dashed=0;strokeWidth=1;shape=mxgraph.ios.iBgFlat;strokeColor=#18211b;fontSize=12;" vertex="1" parent="1">
          <mxGeometry x="46.75" y="515" width="186" height="320" as="geometry" />
        </mxCell>
        <mxCell id="q3nTp1ZwZaZowu6n0daH-102" value="" style="verticalLabelPosition=bottom;verticalAlign=top;html=1;shadow=0;dashed=0;strokeWidth=1;shape=mxgraph.android.phone2;strokeColor=#c0c0c0;" vertex="1" parent="1">
          <mxGeometry x="39.5" y="480" width="200" height="390" as="geometry" />
        </mxCell>
        <mxCell id="q3nTp1ZwZaZowu6n0daH-105" value="&lt;font style=&quot;font-size: 12px;&quot;&gt;Add question&lt;br&gt;&lt;/font&gt;" style="rounded=1;html=1;shadow=0;dashed=0;whiteSpace=wrap;fontSize=10;fillColor=#666666;align=center;strokeColor=#4D4D4D;fontColor=#ffffff;" vertex="1" parent="1">
          <mxGeometry x="87" y="783.1199999999999" width="105.5" height="16.88" as="geometry" />
        </mxCell>
        <mxCell id="q3nTp1ZwZaZowu6n0daH-106" value="Create" style="rounded=1;html=1;shadow=0;dashed=0;whiteSpace=wrap;fontSize=12;fillColor=#666666;align=center;strokeColor=#4D4D4D;fontColor=#ffffff;" vertex="1" parent="1">
          <mxGeometry x="87" y="810" width="105.5" height="16.88" as="geometry" />
        </mxCell>
        <mxCell id="q3nTp1ZwZaZowu6n0daH-122" value="Username" style="whiteSpace=wrap;html=1;shadow=0;dashed=0;fontSize=10;align=left;fillColor=#FFFFFF;strokeColor=#1A1A1A;fontColor=#B3B3B3;fillStyle=auto;" vertex="1" parent="1">
          <mxGeometry x="49" y="516" width="182" height="16.88" as="geometry" />
        </mxCell>
        <mxCell id="q3nTp1ZwZaZowu6n0daH-123" value="" style="strokeWidth=1;html=1;shadow=0;dashed=0;shape=mxgraph.android.rrect;rSize=0;fillColor=#eeeeee;strokeColor=none;" vertex="1" parent="1">
          <mxGeometry x="49" y="535" width="181" height="30" as="geometry" />
        </mxCell>
        <mxCell id="q3nTp1ZwZaZowu6n0daH-124" value="Active" style="strokeWidth=1;html=1;shadow=0;dashed=0;shape=mxgraph.android.anchor;fontStyle=1;fontColor=#666666;" vertex="1" parent="q3nTp1ZwZaZowu6n0daH-123">
          <mxGeometry width="50" height="30" as="geometry" />
        </mxCell>
        <mxCell id="q3nTp1ZwZaZowu6n0daH-125" value="History" style="strokeWidth=1;html=1;shadow=0;dashed=0;shape=mxgraph.android.rrect;rSize=0;fontStyle=1;fillColor=#44c5f5;strokeColor=none;fontColor=#ffffff;" vertex="1" parent="q3nTp1ZwZaZowu6n0daH-123">
          <mxGeometry x="55.5" width="70" height="30" as="geometry" />
        </mxCell>
        <mxCell id="q3nTp1ZwZaZowu6n0daH-126" value="" style="strokeWidth=1;html=1;shadow=0;dashed=0;shape=mxgraph.android.rrect;rSize=0;fillColor=#33b5e5;strokeColor=none;" vertex="1" parent="q3nTp1ZwZaZowu6n0daH-125">
          <mxGeometry y="27" width="70" height="3" as="geometry" />
        </mxCell>
        <mxCell id="q3nTp1ZwZaZowu6n0daH-127" value="Created" style="strokeWidth=1;html=1;shadow=0;dashed=0;shape=mxgraph.android.anchor;fontStyle=1;fontColor=#666666;" vertex="1" parent="q3nTp1ZwZaZowu6n0daH-123">
          <mxGeometry x="130" width="50" height="30" as="geometry" />
        </mxCell>
        <mxCell id="q3nTp1ZwZaZowu6n0daH-128" value="" style="strokeWidth=1;html=1;shadow=0;dashed=0;shape=mxgraph.android.anchor;fontStyle=1;fontColor=#666666;" vertex="1" parent="q3nTp1ZwZaZowu6n0daH-123">
          <mxGeometry x="135.75" width="45.25" height="30" as="geometry" />
        </mxCell>
        <mxCell id="q3nTp1ZwZaZowu6n0daH-131" value="" style="strokeWidth=1;html=1;shadow=0;dashed=0;shape=mxgraph.android.textfield;align=center;strokeColor=#999999;pointerEvents=1" vertex="1" parent="1">
          <mxGeometry x="390" y="1040" width="70" height="30" as="geometry" />
        </mxCell>
        <mxCell id="q3nTp1ZwZaZowu6n0daH-132" value="Time:" style="text;html=1;align=center;verticalAlign=middle;resizable=0;points=[];autosize=1;strokeColor=none;fillColor=none;" vertex="1" parent="1">
          <mxGeometry x="311.75" y="1040" width="50" height="30" as="geometry" />
        </mxCell>
        <mxCell id="q3nTp1ZwZaZowu6n0daH-133" value="" style="strokeWidth=1;html=1;shadow=0;dashed=0;shape=mxgraph.android.textfield;align=center;strokeColor=#999999;pointerEvents=1" vertex="1" parent="1">
          <mxGeometry x="143.63" y="1040" width="70" height="30" as="geometry" />
        </mxCell>
        <mxCell id="q3nTp1ZwZaZowu6n0daH-134" value="Time:" style="text;html=1;align=center;verticalAlign=middle;resizable=0;points=[];autosize=1;strokeColor=none;fillColor=none;" vertex="1" parent="1">
          <mxGeometry x="65.38" y="1040" width="50" height="30" as="geometry" />
        </mxCell>
      </root>
    </mxGraphModel>
  </diagram>
</mxfile>
